<?xml version="1.0" encoding="UTF-8"?>
<svg id="coralBanner1" xmlns="http://www.w3.org/2000/svg" viewBox="0 0 3608.6 739.9">
  <defs>
    <style>
      .cls-1 {
        stroke: #efd5d3;
        stroke-width: 55px;
      }

      .cls-1, .cls-2 {
        fill: none;
        stroke-linecap: round;
        stroke-linejoin: round;
      }

      .cls-2 {
        stroke: #570060;
        stroke-width: 10px;
      }

      .cls-3 {
        fill: #ffebde;
      }

      .cls-3, .cls-4 {
        stroke-width: 0px;
      }

      .cls-4 {
        fill: #efd5d3;
      }
    </style>
  </defs>
  <g>
    <path class="cls-3" d="M57.5,27.5h3493.6c16.56,0,30,13.44,30,30v624.9c0,16.56-13.44,30-30,30H57.5c-16.56,0-30-13.44-30-30V57.5c0-16.56,13.44-30,30-30Z"/>
    <path class="cls-1" d="M57.5,27.5h3493.6c16.56,0,30,13.44,30,30v624.9c0,16.56-13.44,30-30,30H57.5c-16.56,0-30-13.44-30-30V57.5c0-16.56,13.44-30,30-30Z"/>
  </g>
  <g>
    <path class="cls-4" d="M160.12,211.13v294.52l26,26h215.12v3.64h-253.1V211.13h11.98M186.12,185.13h-63.98v376.16h305.1v-55.64h-241.12V185.13h0Z"/>
    <path class="cls-4" d="M501,211.13v324.16h-12V211.13h12M527,185.13h-64v376.16h64V185.13h0Z"/>
    <path class="cls-4" d="M725.91,206.15c55.49,0,95.99,12.04,120.39,35.77,10.39,10.11,17.93,22.46,22.56,36.9h-17.08c-5.56-15.36-14.71-28.7-27.06-39.28-22.83-19.56-56.07-29.47-98.78-29.47s-75.62,9.41-96.12,27.97c-15.29,13.84-23.71,32.62-23.71,52.89,0,14.52,5.8,27.64,16.76,37.94,7.87,7.39,18.41,13.37,32.22,18.28,21.67,7.7,49.61,12.14,79.18,16.84,37.5,5.96,80.01,12.71,110.52,26.88,14.49,6.73,24.91,14.38,31.84,23.39,7.23,9.4,10.75,20.68,10.75,34.47,0,15.01-2.26,27.31-6.9,37.6-4.48,9.94-11.29,18.01-20.81,24.67-23.02,16.11-62.55,24.28-117.5,24.28-37.11,0-68.35-4.18-92.83-12.41-22.17-7.45-38.82-18.29-49.49-32.21-6.86-8.95-10.9-18.74-13.29-28.14h16.48c4.06,11.93,10.24,22.52,18.48,31.67,10.9,12.11,25.3,21.44,42.77,27.74,28.44,10.26,58.79,10.26,75.12,10.26,21.23,0,52.45-1.16,78.29-11.16,33.5-12.96,51.96-38.63,51.96-72.26,0-15.75-5.77-30.08-16.67-41.46-8.42-8.78-19.8-15.84-34.78-21.58-23.71-9.09-53.71-13.85-85.48-18.9-37.12-5.9-75.51-12-103.45-24.99-26.53-12.33-37.85-27.8-37.85-51.72,0-8.2,1.74-29.23,17.86-47.42,9.18-10.36,21.93-18.66,37.89-24.67,20.94-7.89,47.43-11.89,78.73-11.89M725.91,180.15c-148.91,0-160.48,84.19-160.48,109.99,0,136.99,278.24,72.71,278.24,158.65,0,51.47-59.49,57.42-104.25,57.42h-.04c-30.25,0-107.95-.02-115.54-69.67h-66.69c.59,19.09,3.88,46.23,22.07,69.96,27.88,36.35,82.69,54.79,162.95,54.79,124.81,0,171.22-39.76,171.22-112.55,0-141.89-281.28-84.78-281.28-157.81,0-16.5,9.14-54.85,93.82-54.85s101.76,39,105.44,68.75h68.56c-3.53-51.2-33.16-124.68-174.03-124.68h0Z"/>
    <path class="cls-4" d="M1063.9,211.34l72.02.14,115.94,323.81h-10.5l-17.37-48.51-24.48-17.23h-199.25l-24.48,17.24-17.37,48.51h-10.48l115.98-323.95M1020.43,465.22h158.93l24.48-34.76-70.8-197.78-24.48-17.24h-17.32l-24.48,17.24-70.81,197.78,24.48,34.76M1045.61,185.3l-134.61,375.99h65.72l23.54-65.75h199.25l23.55,65.75h65.73l-134.54-375.77-108.63-.22h0ZM1020.43,439.22l70.81-197.78h17.32l70.8,197.78h-158.93Z"/>
    <path class="cls-4" d="M1703.68,211.13c35.24,0,61.28,6.66,77.41,19.8,14.73,12,21.9,30.4,21.91,56.25,0,37.78-12.37,44.34-19.03,47.86l-1.12.59c6.56-11.48,9.89-25.23,9.89-40.96,0-18.02-4.49-33.46-13.34-45.87-7.93-11.12-19.15-19.52-33.35-24.98-21.82-8.38-46.94-8.38-67.13-8.38h-102.84l-26,26v106.43l23.44,23.44-23.42,23.42v110.23l26,26h121.23c19.97,0,44.82,0,66.53-8.79,14.06-5.69,25.13-14.4,32.9-25.89,8.51-12.58,12.83-28.2,12.84-46.43,0-17.28-3.62-30.72-9.09-41.18,5.07,3.14,8.81,6.9,11.6,11.55,5.2,8.68,7.73,21.44,7.74,39,0,26.6-7.69,46.58-22.85,59.38-12.74,10.76-31.14,16.68-51.8,16.68h-207.07V211.13h165.57M1761.86,357.95l1.36,18.43c-9.47-3.64-19.52-5.59-29.71-6.6,4.8-1.13,9.55-2.58,14.15-4.42,5.15-2.06,9.89-4.54,14.2-7.41M1703.68,185.13h-191.57v376.16h233.07c48.66,0,100.65-26.82,100.65-102.07-.02-44.39-14.42-68.43-48.16-80.42l-24.41-8.66,22.89-12.15c15.29-8.11,32.85-23.49,32.85-70.83-.02-67.7-42.17-102.05-125.31-102.05h0ZM1576.07,347.87v-106.43h102.84c37.05,0,87.82,0,87.82,53.23s-48.61,53.2-84.12,53.2h-106.54ZM1576.08,504.95v-110.23h132.21c36.42,0,75.28,4.24,75.28,55.12-.02,55.11-49.88,55.11-86.27,55.11h-121.23Z"/>
    <path class="cls-4" d="M1916.93,211.13v324.16h-11.99V211.13h11.99M1942.93,185.13h-63.99v376.16h63.99V185.13h0Z"/>
    <path class="cls-4" d="M2141.85,206.15c55.49,0,95.99,12.04,120.39,35.77,10.39,10.11,17.93,22.46,22.56,36.9h-17.08c-5.56-15.36-14.71-28.7-27.06-39.28-22.83-19.56-56.07-29.47-98.78-29.47s-75.62,9.41-96.12,27.97c-15.29,13.84-23.71,32.62-23.71,52.89,0,14.52,5.8,27.64,16.76,37.94,7.87,7.39,18.41,13.37,32.22,18.28,21.67,7.7,49.61,12.14,79.18,16.84,37.5,5.96,80.01,12.71,110.52,26.88,14.49,6.73,24.91,14.38,31.84,23.39,7.23,9.4,10.75,20.68,10.75,34.47,0,15.01-2.26,27.31-6.9,37.6-4.48,9.94-11.29,18.01-20.81,24.67-23.02,16.11-62.55,24.28-117.5,24.28-37.12,0-68.35-4.18-92.83-12.41-22.17-7.45-38.82-18.29-49.49-32.2-6.86-8.95-10.9-18.74-13.29-28.14h16.48c4.06,11.93,10.24,22.52,18.48,31.67,10.9,12.11,25.3,21.44,42.77,27.74,28.44,10.26,58.79,10.26,75.12,10.26,21.23,0,52.45-1.16,78.29-11.16,33.5-12.96,51.96-38.63,51.96-72.26,0-15.75-5.77-30.08-16.67-41.46-8.42-8.78-19.8-15.84-34.78-21.58-23.71-9.09-53.71-13.85-85.48-18.9-37.12-5.9-75.51-12-103.45-24.99-26.53-12.33-37.85-27.8-37.85-51.72,0-8.2,1.74-29.23,17.86-47.42,9.18-10.36,21.93-18.66,37.89-24.67,20.95-7.89,47.43-11.89,78.73-11.89M2141.85,180.15c-148.91,0-160.48,84.19-160.48,109.99,0,136.99,278.24,72.71,278.24,158.65,0,51.47-59.49,57.42-104.25,57.42h-.04c-30.25,0-107.95-.02-115.54-69.67h-66.7c.59,19.09,3.89,46.23,22.07,69.96,27.88,36.35,82.69,54.79,162.95,54.79,124.81,0,171.21-39.76,171.21-112.55,0-141.89-281.28-84.78-281.28-157.81,0-16.5,9.14-54.85,93.82-54.85s101.76,39,105.44,68.75h68.56c-3.53-51.2-33.16-124.68-174.03-124.68h0Z"/>
    <path class="cls-4" d="M2686.07,211.13v324.16h-11.99v-134.26l-26-26h-231.19l-26,26v134.26h-11.98V211.13h11.98v134.28l26,26h231.19l26-26v-134.28h11.99M2712.07,185.13h-63.99v160.28h-231.19v-160.28h-63.98v376.16h63.98v-160.26h231.19v160.26h63.99V185.13h0Z"/>
    <path class="cls-4" d="M2936.98,204.61c49.26,0,90.9,14.57,120.4,42.14,30.76,28.75,47.02,71.35,47.02,123.2s-15.54,91.68-44.93,120.77c-29.47,29.16-71.83,44.57-122.48,44.57s-94.14-15.18-123.18-43.9c-28.96-28.64-44.26-70.63-44.26-121.44s15.54-91.69,44.94-120.77c29.48-29.16,71.84-44.57,122.5-44.57M2936.98,521.56c46.54,0,85.93-14.17,113.92-40.97,28.3-27.1,43.26-65.37,43.26-110.66s-14.8-84.27-42.8-111.09c-27.69-26.52-67.24-40.54-114.37-40.54s-86.69,14.02-114.39,40.54c-28,26.82-42.81,65.23-42.81,111.09s14.8,84.28,42.81,111.09c27.69,26.52,67.25,40.54,114.39,40.54M2936.98,178.61c-117.51,0-193.44,75.12-193.44,191.34s74.12,191.34,193.44,191.34,193.42-75.12,193.42-191.34c0-59.24-19.1-108.4-55.26-142.2-34.4-32.15-82.16-49.15-138.16-49.15h0ZM2936.98,495.56c-82.15,0-131.19-46.96-131.19-125.63s49.04-125.63,131.19-125.63,131.18,46.97,131.18,125.63-50.25,125.63-131.18,125.63h0Z"/>
    <path class="cls-4" d="M3327.67,211.13c21.48,0,57.43,0,85.77,13.89,14.29,7.01,24.96,16.6,32.6,29.34,9.57,15.94,14.42,37.19,14.42,63.16,0,34.62-8.52,60.65-25.31,77.38-19.17,19.09-51.37,28.77-95.7,28.77-3.01,0-5.71-.04-7.74-.07h-.44s-107.09,0-107.09,0l-26,26v85.71h-12.01V211.13h37.76l.22.22-25.98,25.98v160.19l25.99,26,109.29.02c.55,0,1.12,0,1.7,0,.72,0,1.45,0,2.21,0,15.98,0,58.44,0,88.29-29.69,18.78-18.66,28.31-44.4,28.31-76.52,0-21.43-4.22-40.17-12.55-55.7-8.9-16.6-22.24-29.36-39.68-37.93-25.26-12.39-52.96-12.39-69.51-12.39h-70.18c21.96-.1,49.26-.2,65.62-.2M3327.67,185.13c-23.64,0-70.89.21-92.05.34l-11.43.07v-.41h-64.01v376.16h64.01v-111.71h107.09c2.43.04,5.16.08,8.18.08,28.47,0,80.79-3.24,114.04-36.34,21.86-21.77,32.97-54.01,32.97-95.8,0-132.39-111.28-132.39-158.8-132.39h0ZM3337.36,397.56c-1.38,0-2.68-.01-3.92-.01l-109.28-.02v-160.19h108.06c15.47,0,38.32.05,58.06,9.73,25,12.29,37.68,35.94,37.68,70.29,0,24.92-6.93,44.46-20.63,58.07-20.97,20.85-51.38,22.13-69.97,22.13h0Z"/>
  </g>
  <path class="cls-2" d="M57.5,27.5h3493.6c16.56,0,30,13.44,30,30v624.9c0,16.56-13.44,30-30,30H57.5c-16.56,0-30-13.44-30-30V57.5c0-16.56,13.44-30,30-30Z"/>
  <g>
    <path class="cls-2" d="M197.5,505.65h218.34c6.29,0,11.39,5.1,11.39,11.39v32.86c0,6.29-5.1,11.39-11.39,11.39H133.53c-6.29,0-11.39-5.1-11.39-11.39V196.51c0-6.29,5.1-11.39,11.39-11.39h41.2c6.29,0,11.39,5.1,11.39,11.39v297.75c0,6.29,5.1,11.39,11.39,11.39Z"/>
    <path class="cls-2" d="M463,549.9V196.51c0-6.29,5.1-11.39,11.39-11.39h41.22c6.29,0,11.39,5.1,11.39,11.39v353.39c0,6.29-5.1,11.39-11.39,11.39h-41.22c-6.29,0-11.39-5.1-11.39-11.39Z"/>
    <path class="cls-2" d="M565.43,290.14c0-25.8,11.57-109.99,160.48-109.99,129.16,0,164.81,61.76,172.56,111.5,1.08,6.92-4.25,13.18-11.25,13.18h-46.32c-5.3,0-9.88-3.66-11.09-8.82-6.6-28.09-30.32-59.94-103.88-59.94-84.68,0-93.82,38.36-93.82,54.85,0,73.03,281.28,15.92,281.28,157.81,0,72.8-46.41,112.55-171.22,112.55-80.26,0-135.08-18.44-162.95-54.79-14.51-18.92-19.54-40.02-21.28-57.47-.67-6.69,4.61-12.49,11.34-12.49h44.88c5.35,0,10,3.72,11.12,8.95,13.03,60.73,85.28,60.72,114.15,60.72,44.76,0,104.25-5.94,104.25-57.42,0-85.94-278.24-21.66-278.24-158.65Z"/>
    <path class="cls-2" d="M1156.94,193.05l126.39,353.01c2.66,7.42-2.84,15.23-10.72,15.23h-41.54c-4.81,0-9.1-3.02-10.72-7.55l-18.14-50.65c-1.62-4.53-5.91-7.55-10.72-7.55h-183.21c-4.81,0-9.1,3.02-10.72,7.55l-18.13,50.65c-1.62,4.53-5.91,7.55-10.72,7.55h-41.52c-7.88,0-13.38-7.81-10.72-15.23l126.45-353.19c1.62-4.54,5.93-7.56,10.75-7.55l92.59.18c4.8,0,9.08,3.03,10.7,7.55ZM1173.91,423.99l-62.64-175c-1.62-4.53-5.91-7.55-10.72-7.55h-1.28c-4.81,0-9.1,3.02-10.72,7.55l-62.66,175c-2.66,7.42,2.84,15.23,10.72,15.23h126.58c7.88,0,13.38-7.81,10.72-15.23Z"/>
    <path class="cls-2" d="M1845.82,459.22c0,75.25-51.99,102.07-100.65,102.07h-221.68c-6.29,0-11.39-5.1-11.39-11.39V196.51c0-6.29,5.1-11.39,11.39-11.39h180.18c83.14,0,125.29,34.35,125.31,102.05,0,47.34-17.55,62.73-32.85,70.83h-.01c-8.75,4.65-7.81,17.49,1.53,20.8h0c33.74,11.99,48.14,36.03,48.16,80.42ZM1576.07,336.48c0,6.29,5.1,11.39,11.39,11.39h95.15c35.52,0,84.12,0,84.12-53.2s-50.77-53.23-87.82-53.23h-91.45c-6.29,0-11.39,5.1-11.39,11.39v83.65ZM1783.58,449.85c0-50.88-38.86-55.12-75.28-55.12h-120.83c-6.29,0-11.39,5.1-11.39,11.39v87.45c0,6.29,5.1,11.39,11.39,11.39h109.84c36.39,0,86.25,0,86.27-55.11Z"/>
    <path class="cls-2" d="M1878.94,549.9V196.51c0-6.29,5.1-11.39,11.39-11.39h41.22c6.29,0,11.39,5.1,11.39,11.39v353.39c0,6.29-5.1,11.39-11.39,11.39h-41.22c-6.29,0-11.39-5.1-11.39-11.39Z"/>
    <path class="cls-2" d="M1981.37,290.14c0-25.8,11.57-109.99,160.48-109.99,129.16,0,164.8,61.76,172.56,111.5,1.08,6.92-4.25,13.18-11.25,13.18h-46.32c-5.3,0-9.88-3.66-11.09-8.81-6.61-28.09-30.32-59.94-103.88-59.94-84.68,0-93.82,38.36-93.82,54.85,0,73.03,281.28,15.92,281.28,157.81,0,72.8-46.4,112.55-171.21,112.55-80.26,0-135.08-18.44-162.95-54.79-14.51-18.92-19.54-40.02-21.28-57.47-.67-6.69,4.61-12.49,11.34-12.49h44.88c5.35,0,10,3.72,11.12,8.95,13.03,60.73,85.28,60.72,114.15,60.72,44.76,0,104.25-5.94,104.25-57.42,0-85.94-278.24-21.66-278.24-158.65Z"/>
    <path class="cls-2" d="M2428.28,345.41h208.41c6.29,0,11.39-5.1,11.39-11.39v-137.5c0-6.29,5.1-11.39,11.39-11.39h41.22c6.29,0,11.39,5.1,11.39,11.39v353.39c0,6.29-5.1,11.39-11.39,11.39h-41.22c-6.29,0-11.39-5.1-11.39-11.39v-137.49c0-6.29-5.1-11.39-11.39-11.39h-208.41c-6.29,0-11.39,5.1-11.39,11.39v137.49c0,6.29-5.1,11.39-11.39,11.39h-41.2c-6.29,0-11.39-5.1-11.39-11.39V196.51c0-6.29,5.1-11.39,11.39-11.39h41.2c6.29,0,11.39,5.1,11.39,11.39v137.5c0,6.29,5.1,11.39,11.39,11.39Z"/>
    <path class="cls-2" d="M3075.14,227.76c36.16,33.8,55.26,82.96,55.26,142.2,0,116.21-75.92,191.34-193.42,191.34s-193.44-73.32-193.44-191.34,75.93-191.34,193.44-191.34c56,0,103.75,17,138.16,49.15ZM3068.16,369.93c0-78.66-49.04-125.63-131.18-125.63s-131.19,46.97-131.19,125.63,49.04,125.63,131.19,125.63,131.18-48.13,131.18-125.63Z"/>
    <path class="cls-2" d="M3486.46,317.52c0,41.79-11.11,74.03-32.97,95.8-36.77,36.61-96.85,36.69-122.22,36.27h-95.71c-6.29,0-11.39,5.1-11.39,11.39v88.93c0,6.29-5.1,11.39-11.39,11.39h-41.23c-6.29,0-11.39-5.1-11.39-11.39V196.51c0-6.29,5.1-11.39,11.39-11.39h52.62v.41l11.43-.07c21.17-.13,68.42-.34,92.05-.34,47.52,0,158.8,0,158.8,132.39ZM3427.96,317.35c0-34.35-12.68-58-37.68-70.29-19.73-9.68-42.58-9.73-58.06-9.73h-96.67c-6.29,0-11.39,5.1-11.39,11.39v137.41c0,6.29,5.1,11.39,11.39,11.39l97.89.02c1.23,0,2.54.01,3.92.01,18.59,0,49-1.29,69.97-22.13,13.7-13.61,20.63-33.15,20.63-58.07Z"/>
  </g>
</svg>